<svg xmlns="http://www.w3.org/2000/svg" version="1.0" viewBox="0 0 512 512">
    <path
        d="M359 33a134 134 0 0 0-111 91 135 135 0 0 0 112 179 135 135 0 0 0 150-160A137 137 0 0 0 380 32l-21 1zm42 35c50 13 83 60 78 110-7 62-67 105-127 90-42-11-74-48-78-91a106 106 0 0 1 89-111c7-2 30 0 38 2z" />
    <path
        d="M370 96c-1 1-2 3-2 9v7l-6 2c-6 3-14 10-17 15-3 6-4 16-2 23l7 10c6 6 8 7 18 12l16 8c7 5 8 12 2 18s-15 6-28 1c-10-4-14-2-16 6-3 8 0 11 16 14l9 3v7c0 8 1 10 9 10s9-2 9-11c0-6 0-7 2-8 11-3 18-9 22-16 2-4 3-6 3-15 0-11-1-12-3-16-4-6-11-12-20-16-17-8-21-10-23-14-2-3-2-4-1-7 4-8 14-10 28-5 8 3 11 2 13-4l2-7c0-4-3-6-14-8l-8-2v-7c0-6 0-7-2-8-3-2-11-2-14-1zM233 316c-17 0-80 9-82 11l-2 3a2787 2787 0 0 0-8 136c2 4 6 3 13-2 7-6 15-10 21-11l20 3c58 11 134 23 160 24 13 0 15 0 22-2 26-9 86-42 116-64 14-11 19-19 19-32-1-8-2-11-9-15-7-3-12-2-26 4-38 20-82 33-113 35-25 1-65-6-79-15-4-2-8-6-8-8s2-1 20 2c26 5 46 6 59 5 17-2 27-6 31-14s2-17-3-22c-3-3-68-23-98-31-24-6-40-8-53-7zm-213 6-4 4c-2 3-16 124-16 136 0 11-4 10 50 11h49c5-1 9-5 9-10l10-127c0-6 0-7-3-9-3-4-3-4-45-6-43-2-46-2-50 1zm46 91c8 2 14 9 16 17 1 12-10 24-22 24-9 0-20-11-20-21 0-7 6-16 14-19 4-2 7-2 12-1z" />
</svg>