<svg xmlns="http://www.w3.org/2000/svg" version="1.0" viewBox="0 0 350 350">
    <path
        d="M157 34a143 143 0 0 0-97 56 141 141 0 0 0-27 90c1 14 1 20 3 28 7 27 20 50 41 70a139 139 0 0 0 128 36c28-6 50-18 71-39 16-16 27-33 34-55 6-17 7-30 7-50-1-38-15-69-41-96-20-20-43-32-72-39-6-1-41-2-48-1zm42 19c16 3 32 10 45 19a124 124 0 0 1-70 227c-59 0-109-42-122-102A124 124 0 0 1 89 85c30-28 70-40 110-32z" />
    <path
        d="m132 87-3 2v171l2 3 6 2a33793 33793 0 0 1 122-79c8-6 9-10 7-15-1-2-12-10-97-67-31-21-32-21-37-17zm43 43a8435 8435 0 0 0 66 45l-92 62-3 2v-64c0-47 0-64 1-63l28 18z" />
</svg>