<svg xmlns="http://www.w3.org/2000/svg" version="1.0" viewBox="0 0 400 400">
    <path
        d="m67 45-5 1h-1l-1-1v4c-1-1-6 3-10 8-1 2-3 3-3 2l-1 17c0 11 0 18 1 17l2 5 1 5 2 7 2 8v3l1 2 1 3c-1 2 0 3 1 3v1l1 2 1 6 1 5 1 3v2c1 0 3 5 4 11l2 7 1 6 1 5 1 1 1 5 2 8 1 5 2 7 1 3 1 2 1 3 1 7 1 5 1 4 2 4 4 18 2 4c1 1 2 2 1 3l1 2 4 17 1 2 1 2 2 6c2 2 3 4 2 5h1l5 2 1 3h-2l3 1 4 1c3 2 18 3 24 1l9-5 5-3 1-1 1-1 2-1c0-2 10-12 12-12l2-1 2-4c3-2 5-3 3-1l1 1v-2l8-8 1-2c0-1 2-2 4-1l1-1c-1-1 2-3 3-3l1 3c-1 0-1 1 0 0 1 0 13 12 12 13l1 1c1-1 8 6 7 7l1 1c1-1 12 9 12 11l2 1 3 3 5 5c3 2 6 6 3 4l-1 1h3l3 3 6 6 3 3v3l1-1c-2-3 0-1 6 5 4 4 6 6 5 7l1 1c1-1 8 6 7 7h1c1 0 3 1 5 4l5 4 2 1 1 2 5 2 7 2 2 1c-1 1 1 1 8 1l11-1c5-2 9-3 10-2l1-1c-1-1 0-1 2-2 2 0 3-1 3-2 0 0 1-2 3-2l2-1h1c2-1 3-3 1-2l1-3 3-2 1-3 2-3 1-1 2-11 1-9v-7c-1 2-2 1-2-3l-3-8-1-5h-1c-1 1-4-3-3-4v-1c-2 1-10-7-9-8l-1-1c-1 1-4-2-3-3v-1c-2 1-10-7-9-8l-1-1c-1 1-11-9-11-11l-2-1a56 56 0 0 1-13-13c-1 0-8-7-7-8l-1-1c-1 1-4-2-3-3l-1-1c-1 1-9-7-8-9h-1c-1 1-9-7-8-8l-1-1c-1 1-4-2-3-4h-1c-1 1-10-8-11-10 0-1 5-6 6-5l1-1a780 780 0 0 0 39-40c4-6 4-27-1-32l-1-3v-1l-6-4-8-6-3-1-5-2-6-1-3-1-3-1-3-1c-1 1-2 0-2-1v-1a159 159 0 0 1-32-7h-2c-2 0-2 0-1-1h-2l-4-1h-1l-3-1-2-1-2-1-5-2-4-1-1-1c-1 1-16-1-16-2l-3-1h-2c1-1 0-2-2-1l-3-1h-1l-4-1-3-1h-1l-5-2-6-1-9-3-10-2-2-1h-2c1-1 0-2-2-1l-3-1-2-1h-3l-3-1h-3l-5-2-3-1-4-1-8-2c-5-1-21-2-25-1zm17 27 3 1 3 1c2 0 3 0 2 1l1 1c1-1 14 1 14 2l2 1 3 1 5 1 4 2h1c2 0 14 2 13 3l3 1 3 1h2l3 1h3l3 1 2 1h1l3 1 2 1 3 1h3l3 1c1 0 2 0 1 1l1 1c1-1 14 1 14 2l2 1 2 1h2l3 1 7 2c4 0 7 1 7 2l3 1h3c-1 1 1 1 3 2l16 3 3 1 3 1h3l2 1 7 2 8 2h2l1 1c-1 1 0 1 2 1l3 1h2l3 1 1 2 1 3-1 1-11 10c-1 1-2 1-2 3l-2 3-6 5-4 2h-1c1 1-4 7-5 7-2 0-25 25-27 28l-2 3 56 56a1534 1534 0 0 1 58 62l1 2-1 3-1 3c0 4-5 9-9 9l-3 1h-7l-1-1-1-1c-1 1-24-22-57-54l-56-56a386 386 0 0 1-47 45h-3l-2 2-5 7c-7 7-11 7-13-1l-1-5v-2l-1-2-2-8-2-7-1-2v-3l-1-3c1-2 0-2-1-2-1 1-1 0-1-1l-4-16v-3l-1-3-2-9-2-7-2-5-1-5-1-5-1-4-1-3v-2l-1-2c0-2 0-3-1-2v-3l-1-3-1-4-2-5-1-6-1-4-1-2-1-3-3-12a59 59 0 0 0-4-15l-1-2c-1 0-3-13-2-14l-1-1c-1 1-1 0-1-2s0-3-1-2c-1 0-4-13-3-15 2-2 5-3 7-2l6 1z" />
</svg>