<svg xmlns="http://www.w3.org/2000/svg" version="1.0" viewBox="0 0 551 551">
    <path
        d="M238 25c-16 3-30 16-34 32l-2 20v13h-63l-68 1a45 45 0 0 0 2 89l11 1h5v128l2 135c8 29 29 50 59 58 6 1 15 2 125 2s119-1 125-2a80 80 0 0 0 58-56l2-8 1-129V181h6c15 0 27-5 36-14 25-25 11-69-24-76l-68-1h-63V77c0-21-4-31-15-41-7-6-13-10-22-12-9-1-64-1-73 1zm70 30c8 4 10 8 10 24v11h-86V78c0-13 1-15 5-20 5-5 8-5 38-5 26 0 29 0 33 2zm169 67c4 2 8 6 9 12 1 5-3 12-9 15l-4 2H77l-4-2c-5-3-9-9-9-14 0-4 4-10 9-13l4-2h198c193 0 198 0 202 2zm-46 186v127l-3 5c-6 17-20 30-37 33H159c-17-4-31-16-37-33l-2-5-1-127V181h312v127z" />
    <path
        d="m267 234-5 5-2 86c0 81 0 84 2 89s6 7 12 8c6 0 10-2 14-7l2-3v-85c0-80 0-85-2-88-3-7-14-9-21-5zm-84 16-5 7-1 72v68l3 4c6 8 19 8 25-1l2-3v-70c0-62 0-70-2-73-2-5-7-7-13-7-5 0-6 0-9 3zm166 0c-6 5-6 2-6 77 0 76 0 73 6 77 4 3 14 3 18 0 6-4 6-1 6-77 0-77 0-74-6-78-5-3-14-3-18 1z" />
</svg>