<svg xmlns="http://www.w3.org/2000/svg" version="1.0" viewBox="0 0 536 536">
    <path
        d="m216 4-2 8c-2 11-5 21-14 36-2 3-7 9-10 10a103 103 0 0 0-16 13l-9 5-11 7-4 2-1 1a234 234 0 0 0-63 38 388 388 0 0 0-46 51 105 105 0 0 0-14 24 142 142 0 0 0-17 42 220 220 0 0 0-4 107 287 287 0 0 0 24 67l5 7 2 4 1 1 2 4 2 4 5 6 4 5 4 5 4 5 3 2 1 1c0 2 11 13 13 13l2 2 15 13 4 3 4 3 5 3 6 4 11 6a227 227 0 0 0 137 29l18-2a205 205 0 0 0 64-20 136 136 0 0 0 27-15c2 0 12-7 12-8l3-2 5-4 3-2 5-5 6-5 10-10 6-7 7-9 5-6 3-6 1-1c1 0 2-1 2-3l3-4a175 175 0 0 0 20-46l1-2c0-4 2-5 12-6 29-3 53-20 62-45 3-11 3-11-8-17-14-8-20-10-39-11h-15l-1-6c-1-3-3-9-3-14a136 136 0 0 0-6-34l-2-9-4-10-2-6-2-5a188 188 0 0 0-34-58l-1-1-1-1-4-6-5-4a139 139 0 0 0-24-24l-6-5-4-3-7-5-4-3-3-2-2-1-1-1-2-1-25-14-19-9-12-5-4-2-9-5a162 162 0 0 1-46-40L224 8l-4-5c0-2-3-1-4 1zm96 202v20h-41l-1-20v-21h42v21zm-110 56v20l-21 1h-21v-41h42v20zm55 0v21h-21l-20-1-1-19v-20l21-1h21v20zm55 0v21h-21l-20-1-1-19v-20l21-1h21v20zm122 10c15 13 22 23 26 37 1 8 1 8 10 6 14-3 32-1 43 5l6 3-3 5c-4 9-15 18-23 22-9 5-21 8-28 8l-10 1c-4 0-5 1-7 5-30 64-75 103-142 123a276 276 0 0 1-113 8c-30-4-57-17-78-36-25-25-38-58-36-93l1-10h155a3378 3378 0 0 0 169-4 81 81 0 0 0 16-6l4-3-4-9c-8-14-8-38-1-52 4-7 8-13 10-13l5 3zm-288 47v20h-42v-20l1-20 20-1h20l1 21zm56 0v20h-42v-41h41l1 21zm55-1v21h-21l-21-1v-39l21-1h21v20zm56 0v21h-43v-20l1-20 21-1h21v20zm55 0v21h-42v-20l1-20 21-1h20v20z" />
    <path
        d="M155 394c-6 2-9 5-12 12-7 13-2 27 12 33 3 2 5 2 12 2 8-1 9-1 13-4l7-7c6-8 5-22-2-30-6-7-19-10-30-6zm16 14 4 4c2 4 1 8-2 12-7 7-19 0-18-10 2-6 10-10 16-6z" />
</svg>