<svg xmlns="http://www.w3.org/2000/svg" version="1.0" viewBox="0 0 475 475">
    <path
        d="M223 43c-10 3-18 11-22 21l-2 5-1 64a2403 2403 0 0 1-2 68l-14-12c-16-16-22-19-34-20-7 0-9 0-14 2-10 5-17 14-19 25 0 6 2 16 6 23s76 79 86 87c9 7 15 9 24 9 7 0 9 0 16-4 8-4 10-6 49-44 47-48 50-52 50-67 0-16-12-30-29-31-13-1-22 4-40 21-8 9-11 11-12 10l-1-66-1-64-2-6c-3-7-10-15-16-19-6-2-17-4-22-2zm13 28c3 3 3 4 3 75l1 72 3 4c5 8 16 12 25 10 4-1 7-4 21-17l19-18c3-2 9-2 11-1l1 3c2 5-2 10-42 50-43 42-43 42-51 40-4-1-17-14-61-57-17-18-22-24-23-27-3-7-2-10 3-10l7 1 19 18 20 18c8 3 19 0 25-7 6-6 6-4 6-78l1-72c2-7 8-9 12-4z" />
    <path
        d="M76 255c-13 4-21 13-24 27l-1 48c1 42 1 43 3 49 3 8 11 16 20 19l6 3h303l7-4c9-4 13-9 17-18l4-6v-46c0-45 0-45-3-51-3-9-8-14-15-18-6-3-8-3-14-3-13 0-22 6-28 18l-3 7-1 25v25l-4 4-4 3H123l-4-3-3-4-1-25v-24l-4-7c-4-9-7-12-14-16-8-3-15-4-21-3zm9 24c6 2 7 5 7 33 1 24 1 25 3 30 3 7 8 12 15 15l6 2 115 1h116l5-3c7-3 12-8 15-15 2-5 2-6 3-31 0-23 1-26 2-28 5-7 10-6 14 1 2 5 2 6 2 44 0 39-1 40-3 43l-4 4c-3 3-3 3-150 3s-147 0-150-3l-4-4c-2-3-2-5-3-42 0-43 0-46 6-49 3-2 2-2 5-1z" />
</svg>