<svg xmlns="http://www.w3.org/2000/svg" version="1.0" viewBox="0 0 350 350">
    <path
        d="M157 34a143 143 0 0 0-97 56 141 141 0 0 0-27 90c1 14 1 20 3 28 7 27 20 50 41 70a139 139 0 0 0 128 36c28-6 50-18 71-39 16-16 27-33 34-55 6-17 7-30 7-50-1-38-15-69-41-96-20-20-43-32-72-39-6-1-41-2-48-1zm42 19c16 3 32 10 45 19a124 124 0 0 1-70 227c-59 0-109-42-122-102A124 124 0 0 1 89 85c30-28 70-40 110-32z" />
    <path
        d="M160 100c-5 3-5 4-4 51l2 47c0 1 1 4 4 5 3 3 4 3 12 3 9 0 9 0 13-3l4-4v-38a860 860 0 0 1 2-47c1-5 0-7-2-10l-3-4h-28zm-58 14-5 7-2 4c-3 3-7 10-7 12l-1 2-3 9-3 11a187 187 0 0 0 1 34c0 5 4 16 7 23l3 6c0 2 8 13 13 18 4 5 6 5 9 2 4-3 4-6-3-13l-7-9-3-5a87 87 0 0 1-10-35 63 63 0 0 1 4-29l2-6 2-6 2-3a167 167 0 0 0 14-18c2-2 3-7 1-9l-5-1c-3 0-4 1-9 6zm130-5c-2 2-1 4 2 7l2 4 3 5 10 14 4 10 4 21a82 82 0 0 1-6 36l-6 11-1 3-6 8c-8 9-9 12-3 15l2 1 6-5c7-7 13-15 13-17l3-6 3-6 2-5 1-6 1-3 1-2a180 180 0 0 0-1-37c0-4-3-14-7-21l-7-14-1-1-5-7c-5-5-6-6-9-6l-5 1zm-69 108c-8 6-10 13-6 23 1 3 2 6 5 8s4 2 12 2c7 0 9 0 12-2s6-7 6-10l1-2c2 0 1-6-1-10l-2-6-1-1-5-3c-3-2-4-2-10-2-6-1-7 0-11 3z" />
</svg>