<svg xmlns="http://www.w3.org/2000/svg" version="1.0" viewBox="0 0 512 512">
    <path
        d="M61 41C37 44 17 58 6 79c-6 13-6 1-6 177s0 164 6 178a70 70 0 0 0 56 37h389c10-1 16-3 25-8 13-6 23-17 30-30 6-13 6-1 6-177s0-164-6-177c-9-18-25-31-45-36l-7-3H261L61 41zm395 25c21 8 34 25 34 47v7l-5-3c-6-6-17-10-26-12-10-3-86-3-98 0-22 4-42 21-49 42l-2 5H186c-109 0-125 0-132 2-9 2-17 5-26 11l-6 4v-32c0-34 0-37 6-48 6-13 22-23 37-25l194-1 192 1 5 2zm-1 62a48 48 0 0 1 33 34c2 5 2 18 2 125s0 120-2 125c-5 17-16 29-33 35-5 1-13 2-199 2s-194-1-199-2c-17-6-28-18-33-35-2-5-2-16-2-102 1-93 1-97 3-102 4-13 15-24 28-30l8-2 131-1c150-1 136 0 139-10 4-15 13-27 24-33s11-6 55-6c37 0 40 0 45 2z" />
</svg>