<svg xmlns="http://www.w3.org/2000/svg" version="1.0" viewBox="0 0 512 512">
    <path
        d="M235 6A252 252 0 0 0 2 222a253 253 0 0 0 161 280c12 5 18 6 23 4 8-4 9-7 7-40 0-22 0-22-2-22l-12 2c-10 1-27 0-37-2-15-4-28-14-34-29-9-19-17-31-28-38l-8-7c-2-3-3-4-2-5 4-4 18-1 29 5 8 6 13 10 20 21 7 12 14 18 23 22 6 3 7 3 21 3a59 59 0 0 0 30-5l3-8c2-9 5-16 10-22l4-5-14-4c-18-3-28-6-43-13a91 91 0 0 1-51-57c-6-17-7-27-7-50 0-20 0-21 2-29 5-15 11-27 20-37l3-6-3-10c-4-14-3-33 3-50l2-6 6-1 15 3c11 4 29 12 40 19l9 5 8-2c36-9 73-9 110 0l10 2 8-5c14-8 21-12 33-17 11-4 13-4 20-4h8l3 6c6 18 7 36 2 50l-2 10 3 6c9 10 15 22 20 37 2 8 2 10 2 29 0 22-1 30-6 47a95 95 0 0 1-53 61c-15 6-31 11-51 14-6 0-6 2-2 7 5 5 8 12 11 21 2 7 2 10 3 52 0 49 0 49 7 52s20-1 46-14a255 255 0 0 0 140-230c0-21 0-29-2-39a249 249 0 0 0-72-142C385 25 313-1 235 5z" />
</svg>