<svg xmlns="http://www.w3.org/2000/svg" version="1.0" viewBox="0 0 512 512">
    <path
        d="M221 2a257 257 0 0 0-12 507c14 2 16 2 47 2s33 0 46-2a255 255 0 0 0 208-215A255 255 0 0 0 290 2c-15-2-54-2-69 0zm-10 30c-22 23-38 47-51 72l-5 9c-1 2-34-12-55-25l-7-4 7-6c31-28 70-47 112-55l9-2-10 11zm108-5a239 239 0 0 1 99 57 256 256 0 0 1-61 29l-5-9c-12-25-30-49-51-72l-10-11 9 2 19 4zm-73 104a264 264 0 0 1-68-10l-4-1 3-5a392 392 0 0 1 55-76l14-13v105zm35-90a291 291 0 0 1 54 74l3 5-4 1a263 263 0 0 1-65 10h-3V79c0-49 0-52 2-51l13 13zM88 105c12 7 39 20 50 24l9 3-2 4a372 372 0 0 0-21 100l-1 10H19v-9A241 241 0 0 1 79 99l9 6zm352 2a236 236 0 0 1 53 130v9H389v-10a372 372 0 0 0-22-100l-2-4 9-3a432 432 0 0 0 59-30l7 8zm-247 37c16 4 36 6 46 6h7v96H143v-12a294 294 0 0 1 21-91l2-5 7 2 20 4zm155-2a316 316 0 0 1 22 101v3H266v-96h7a329 329 0 0 0 73-12l2 4zM123 268l1 15c2 25 9 57 16 79 4 10 4 10 2 11a284 284 0 0 0-58 28l-10 6a242 242 0 0 1-54-133l-1-8h52c50 0 52 0 52 2zm123 41v44h-12a340 340 0 0 0-72 13l-4-15c-8-23-13-50-15-73l-1-12h104v43zm123-31c-2 23-7 50-15 73l-4 15-7-2c-19-5-45-10-66-11h-11v-87h104l-1 12zm124-4a242 242 0 0 1-55 133l-9-6a399 399 0 0 0-59-28c-2-1-2-1 2-11 8-22 14-53 16-79l1-15c0-2 2-2 52-2h52v8zM246 429c0 53 0 56-2 55l-14-13a338 338 0 0 1-59-86c0-3 46-12 71-13h4v57zm50-54c19 2 45 8 45 10a313 313 0 0 1-73 99c-2 1-2-2-2-56v-56l9 1 21 2zm-139 28c14 28 31 52 55 78l9 10-9-2a238 238 0 0 1-119-61l-5-6 7-4c15-10 51-27 55-27 1 0 4 4 7 12zm218-7c13 6 31 15 42 22l7 4-5 6-15 13c-30 24-66 41-104 48l-9 2 9-10a323 323 0 0 0 62-90l13 5z" />
</svg>