<svg xmlns="http://www.w3.org/2000/svg" version="1.0" viewBox="0 0 302 302">
    <path
        d="M112 17c-26 3-45 16-55 36-6 12-7 17-7 33 1 17 5 27 17 42 15 20 40 33 71 38 20 3 48 1 66-4l8-3v6c-5 38-33 69-70 76-11 2-27 1-37-2s-23-10-31-16a92 92 0 0 1-29-45c-2-10-2-28 0-39 2-5 2-8 1-9L7 117c-2 0-3 3-5 15-1 5-2 13-2 27 0 19 0 21 3 31 5 21 16 40 31 56 18 19 37 30 62 37 8 2 11 2 31 2a113 113 0 0 0 91-36c27-26 40-61 39-98l-1-13 12-12a111 111 0 0 0 34-71v-7h-43v3c-3 14-8 25-15 35l-4 5-6-9c-18-28-44-50-72-59-17-6-36-8-50-6zm33 47c23 9 40 23 54 47l3 5-6 2c-26 7-48 7-69-1-24-8-38-29-31-43 2-5 8-9 12-11 6-2 8-2 19-2l18 3z" />
</svg>