<svg xmlns="http://www.w3.org/2000/svg" version="1.0" viewBox="0 0 400 400">
    <path
        d="M223 57a104 104 0 0 0-82 59c-7 15-9 22-10 43 0 20 1 27 5 40l4 12c2 4 0 6-8 8-11 2-12 2-48 35-34 31-34 31-34 47 0 10 0 11 3 16 5 9 17 20 23 24 6 2 7 2 15 2 8-1 10-1 15-4 3-1 18-14 35-29 33-30 36-34 37-44 0-4 1-5 3-7l3-2 7 3c11 6 24 9 37 10 29 2 52-3 75-19a105 105 0 0 0 44-88c0-15 0-19-2-27a105 105 0 0 0-91-80h-31zm38 21c33 10 58 36 66 69 8 39-17 82-56 98-18 7-35 8-52 4a95 95 0 0 1-69-76 91 91 0 0 1 76-97c8-1 27 0 35 2zM143 241c4 3 13 13 15 17 2 6 2 6-37 41l-26 22c-5 4-8 3-17-6-8-9-10-12-8-17 0-2 12-13 42-40 23-21 24-22 31-17z" />
    <path
        d="M228 83c-32 3-60 27-68 59-3 10-3 31 0 43 7 28 29 50 58 57 10 2 34 2 44-1 10-2 24-9 31-15 11-10 21-25 25-41 3-11 3-32 1-42a82 82 0 0 0-91-60zm27 21c24 8 41 27 46 51 4 27-15 57-44 67-28 9-60-5-74-34-11-22-7-47 12-66 8-8 15-13 25-17 13-4 22-5 35-1z" />
</svg>