<svg xmlns="http://www.w3.org/2000/svg" version="1.0" viewBox="0 0 350 350">
    <path
        d="M157 34a143 143 0 0 0-97 56 141 141 0 0 0-27 90c1 14 1 20 3 28 7 27 20 50 41 70a139 139 0 0 0 128 36c28-6 50-18 71-39 16-16 27-33 34-55 6-17 7-30 7-50-1-38-15-69-41-96-20-20-43-32-72-39-6-1-41-2-48-1zm42 19c16 3 32 10 45 19a124 124 0 0 1-70 227c-59 0-109-42-122-102A124 124 0 0 1 89 85c30-28 70-40 110-32z" />
    <path
        d="m127 98-8 4-4 2c-2 0-10 8-10 10l-1 1-5 12v95l5 12 1 1c0 2 8 10 10 10l4 2c2 2 6 3 9 4h93c9-2 18-8 23-15l4-6 3-5v-99l-3-6-3-5-1-1c0-2-8-10-10-10l-2-1c-2-2-6-4-11-5h-94zm91 23 1 1c3 0 9 8 10 11l1 3a408 408 0 0 1-1 80c-2 4-8 11-10 11l-1 1a657 657 0 0 1-88-1c-2 0-9-8-10-11l-1-3a411 411 0 0 1 1-80c1-3 8-11 10-11l1-1c0-2 4-2 45-2l42 2z" />
</svg>